<svg id="visual" viewBox="0 0 900 600" width="900" height="600" xmlns="http://www.w3.org/2000/svg" xmlns:xlink="http://www.w3.org/1999/xlink" version="1.1"><rect x="0" y="0" width="900" height="600" fill="#001220"></rect><path d="M0 412L21.5 416.2C43 420.3 86 428.7 128.8 429C171.7 429.3 214.3 421.7 257.2 422.7C300 423.7 343 433.3 385.8 434.7C428.7 436 471.3 429 514.2 417.8C557 406.7 600 391.3 642.8 390C685.7 388.7 728.3 401.3 771.2 407.2C814 413 857 412 878.5 411.5L900 411L900 601L878.5 601C857 601 814 601 771.2 601C728.3 601 685.7 601 642.8 601C600 601 557 601 514.2 601C471.3 601 428.7 601 385.8 601C343 601 300 601 257.2 601C214.3 601 171.7 601 128.8 601C86 601 43 601 21.5 601L0 601Z" fill="#c62368"></path><path d="M0 466L21.5 466.3C43 466.7 86 467.3 128.8 461.2C171.7 455 214.3 442 257.2 440.8C300 439.7 343 450.3 385.8 450.8C428.7 451.3 471.3 441.7 514.2 444.3C557 447 600 462 642.8 458.3C685.7 454.7 728.3 432.3 771.2 421.5C814 410.7 857 411.3 878.5 411.7L900 412L900 601L878.5 601C857 601 814 601 771.2 601C728.3 601 685.7 601 642.8 601C600 601 557 601 514.2 601C471.3 601 428.7 601 385.8 601C343 601 300 601 257.2 601C214.3 601 171.7 601 128.8 601C86 601 43 601 21.5 601L0 601Z" fill="#e95667"></path><path d="M0 497L21.5 490.5C43 484 86 471 128.8 470.2C171.7 469.3 214.3 480.7 257.2 488.5C300 496.3 343 500.7 385.8 500.7C428.7 500.7 471.3 496.3 514.2 496.3C557 496.3 600 500.7 642.8 493C685.7 485.3 728.3 465.7 771.2 464.7C814 463.7 857 481.3 878.5 490.2L900 499L900 601L878.5 601C857 601 814 601 771.2 601C728.3 601 685.7 601 642.8 601C600 601 557 601 514.2 601C471.3 601 428.7 601 385.8 601C343 601 300 601 257.2 601C214.3 601 171.7 601 128.8 601C86 601 43 601 21.5 601L0 601Z" fill="#fa7268"></path><path d="M0 507L21.5 509.2C43 511.3 86 515.7 128.8 514.5C171.7 513.3 214.3 506.7 257.2 508C300 509.3 343 518.7 385.8 516.7C428.7 514.7 471.3 501.3 514.2 494.5C557 487.7 600 487.3 642.8 488.2C685.7 489 728.3 491 771.2 495C814 499 857 505 878.5 508L900 511L900 601L878.5 601C857 601 814 601 771.2 601C728.3 601 685.7 601 642.8 601C600 601 557 601 514.2 601C471.3 601 428.7 601 385.8 601C343 601 300 601 257.2 601C214.3 601 171.7 601 128.8 601C86 601 43 601 21.5 601L0 601Z" fill="#e95667"></path><path d="M0 546L21.5 546.5C43 547 86 548 128.8 546.3C171.7 544.7 214.3 540.3 257.2 539.3C300 538.3 343 540.7 385.8 539.8C428.7 539 471.3 535 514.2 538C557 541 600 551 642.8 551.5C685.7 552 728.3 543 771.2 539C814 535 857 536 878.5 536.5L900 537L900 601L878.5 601C857 601 814 601 771.2 601C728.3 601 685.7 601 642.8 601C600 601 557 601 514.2 601C471.3 601 428.7 601 385.8 601C343 601 300 601 257.2 601C214.3 601 171.7 601 128.8 601C86 601 43 601 21.5 601L0 601Z" fill="#c62368"></path></svg>