{
    "asset" : {
        "generator" : "Khronos glTF Blender I/O v1.6.16",
        "version" : "2.0"
    },
    "scene" : 0,
    "scenes" : [
        {
            "name" : "Scene",
            "nodes" : [
                0,
                1,
                2,
                3,
                4
            ]
        }
    ],
    "nodes" : [
        {
            "mesh" : 0,
            "name" : "billboard",
            "scale" : [
                6.935107231140137,
                6.935107231140137,
                0.5636633038520813
            ],
            "translation" : [
                0,
                6.874767780303955,
                0
            ]
        },
        {
            "mesh" : 1,
            "name" : "billboard-wireframe",
            "scale" : [
                6.935107231140137,
                6.935107231140137,
                0.5636633038520813
            ],
            "translation" : [
                0,
                6.874767780303955,
                0
            ]
        },
        {
            "mesh" : 2,
            "name" : "lamp.002",
            "rotation" : [
                0.12661249935626984,
                -0.6956791281700134,
                -0.12661267817020416,
                0.6956788301467896
            ],
            "scale" : [
                0.46068456768989563,
                0.46068456768989563,
                0.46068456768989563
            ],
            "translation" : [
                6.388585090637207,
                14.494656562805176,
                1.9713075160980225
            ]
        },
        {
            "mesh" : 3,
            "name" : "lamp",
            "rotation" : [
                0.12661249935626984,
                -0.6956791281700134,
                -0.12661267817020416,
                0.6956788301467896
            ],
            "scale" : [
                0.46068456768989563,
                0.46068456768989563,
                0.46068456768989563
            ],
            "translation" : [
                0.023544788360595703,
                14.494656562805176,
                1.9713075160980225
            ]
        },
        {
            "mesh" : 4,
            "name" : "lamp.001",
            "rotation" : [
                0.12661249935626984,
                -0.6956791281700134,
                -0.12661267817020416,
                0.6956788301467896
            ],
            "scale" : [
                0.46068456768989563,
                0.46068456768989563,
                0.46068456768989563
            ],
            "translation" : [
                -6.277525424957275,
                14.494656562805176,
                1.9713075160980225
            ]
        }
    ],
    "materials" : [
        {
            "doubleSided" : true,
            "name" : "screen-A",
            "pbrMetallicRoughness" : {
                "baseColorFactor" : [
                    1,
                    1,
                    1,
                    0.19999998807907104
                ],
                "baseColorTexture" : {
                    "index" : 0
                },
                "metallicFactor" : 0,
                "roughnessFactor" : 0.25
            }
        },
        {
            "doubleSided" : true,
            "name" : "black",
            "pbrMetallicRoughness" : {
                "baseColorFactor" : [
                    0,
                    0,
                    0,
                    1
                ],
                "metallicFactor" : 0,
                "roughnessFactor" : 0.5
            }
        },
        {
            "doubleSided" : true,
            "name" : "lines",
            "pbrMetallicRoughness" : {
                "baseColorFactor" : [
                    0,
                    0,
                    0,
                    1
                ],
                "metallicFactor" : 0
            }
        },
        {
            "doubleSided" : true,
            "name" : "lamp",
            "pbrMetallicRoughness" : {
                "baseColorFactor" : [
                    0.800000011920929,
                    0.800000011920929,
                    0.800000011920929,
                    0.19999998807907104
                ],
                "metallicFactor" : 0,
                "roughnessFactor" : 0.5
            }
        }
    ],
    "meshes" : [
        {
            "name" : "Cube.002",
            "primitives" : [
                {
                    "attributes" : {
                        "POSITION" : 0,
                        "NORMAL" : 1,
                        "TEXCOORD_0" : 2
                    },
                    "indices" : 3,
                    "material" : 0
                },
                {
                    "attributes" : {
                        "POSITION" : 4,
                        "NORMAL" : 5,
                        "TEXCOORD_0" : 6
                    },
                    "indices" : 7,
                    "material" : 1
                }
            ]
        },
        {
            "name" : "Cube.010",
            "primitives" : [
                {
                    "attributes" : {
                        "POSITION" : 8,
                        "NORMAL" : 9,
                        "TEXCOORD_0" : 10
                    },
                    "indices" : 11,
                    "material" : 1
                }
            ]
        },
        {
            "name" : "Cone.003",
            "primitives" : [
                {
                    "attributes" : {
                        "POSITION" : 12,
                        "NORMAL" : 13,
                        "TEXCOORD_0" : 14
                    },
                    "indices" : 15,
                    "material" : 1
                },
                {
                    "attributes" : {
                        "POSITION" : 16,
                        "NORMAL" : 17,
                        "TEXCOORD_0" : 18
                    },
                    "indices" : 19,
                    "material" : 2
                },
                {
                    "attributes" : {
                        "POSITION" : 20,
                        "NORMAL" : 21,
                        "TEXCOORD_0" : 22
                    },
                    "indices" : 23,
                    "material" : 3
                }
            ]
        },
        {
            "name" : "Cone.004",
            "primitives" : [
                {
                    "attributes" : {
                        "POSITION" : 24,
                        "NORMAL" : 25,
                        "TEXCOORD_0" : 26
                    },
                    "indices" : 15,
                    "material" : 1
                },
                {
                    "attributes" : {
                        "POSITION" : 27,
                        "NORMAL" : 28,
                        "TEXCOORD_0" : 29
                    },
                    "indices" : 19,
                    "material" : 2
                },
                {
                    "attributes" : {
                        "POSITION" : 30,
                        "NORMAL" : 31,
                        "TEXCOORD_0" : 32
                    },
                    "indices" : 23,
                    "material" : 3
                }
            ]
        },
        {
            "name" : "Cone.005",
            "primitives" : [
                {
                    "attributes" : {
                        "POSITION" : 33,
                        "NORMAL" : 34,
                        "TEXCOORD_0" : 35
                    },
                    "indices" : 15,
                    "material" : 1
                },
                {
                    "attributes" : {
                        "POSITION" : 36,
                        "NORMAL" : 37,
                        "TEXCOORD_0" : 38
                    },
                    "indices" : 19,
                    "material" : 2
                },
                {
                    "attributes" : {
                        "POSITION" : 39,
                        "NORMAL" : 40,
                        "TEXCOORD_0" : 41
                    },
                    "indices" : 23,
                    "material" : 3
                }
            ]
        }
    ],
    "textures" : [
        {
            "sampler" : 0,
            "source" : 0
        }
    ],
    "images" : [
        {
            "bufferView" : 4,
            "mimeType" : "image/png",
            "name" : "sdafasd (2)"
        }
    ],
    "accessors" : [
        {
            "bufferView" : 0,
            "componentType" : 5126,
            "count" : 36,
            "max" : [
                1,
                1,
                1
            ],
            "min" : [
                -1,
                -1,
                1
            ],
            "type" : "VEC3"
        },
        {
            "bufferView" : 1,
            "componentType" : 5126,
            "count" : 36,
            "type" : "VEC3"
        },
        {
            "bufferView" : 2,
            "componentType" : 5126,
            "count" : 36,
            "type" : "VEC2"
        },
        {
            "bufferView" : 3,
            "componentType" : 5123,
            "count" : 150,
            "type" : "SCALAR"
        },
        {
            "bufferView" : 5,
            "componentType" : 5126,
            "count" : 84,
            "max" : [
                1,
                1,
                1
            ],
            "min" : [
                -1,
                -1,
                -1
            ],
            "type" : "VEC3"
        },
        {
            "bufferView" : 6,
            "componentType" : 5126,
            "count" : 84,
            "type" : "VEC3"
        },
        {
            "bufferView" : 7,
            "componentType" : 5126,
            "count" : 84,
            "type" : "VEC2"
        },
        {
            "bufferView" : 8,
            "componentType" : 5123,
            "count" : 270,
            "type" : "SCALAR"
        },
        {
            "bufferView" : 9,
            "componentType" : 5126,
            "count" : 2250,
            "max" : [
                1.007070779800415,
                1.007070779800415,
                1.0099999904632568
            ],
            "min" : [
                -1.007070779800415,
                -1.007070779800415,
                -1.0099999904632568
            ],
            "type" : "VEC3"
        },
        {
            "bufferView" : 10,
            "componentType" : 5126,
            "count" : 2250,
            "type" : "VEC3"
        },
        {
            "bufferView" : 11,
            "componentType" : 5126,
            "count" : 2250,
            "type" : "VEC2"
        },
        {
            "bufferView" : 12,
            "componentType" : 5123,
            "count" : 3390,
            "type" : "SCALAR"
        },
        {
            "bufferView" : 13,
            "componentType" : 5126,
            "count" : 39,
            "max" : [
                2.5032358169555664,
                2.1564512252807617,
                0.8072708249092102
            ],
            "min" : [
                -4.398165225982666,
                -3.3544249534606934,
                -1.001746416091919
            ],
            "type" : "VEC3"
        },
        {
            "bufferView" : 14,
            "componentType" : 5126,
            "count" : 39,
            "type" : "VEC3"
        },
        {
            "bufferView" : 15,
            "componentType" : 5126,
            "count" : 39,
            "type" : "VEC2"
        },
        {
            "bufferView" : 16,
            "componentType" : 5123,
            "count" : 51,
            "type" : "SCALAR"
        },
        {
            "bufferView" : 17,
            "componentType" : 5126,
            "count" : 792,
            "max" : [
                2.528754234313965,
                2.1809213161468506,
                0.8289785385131836
            ],
            "min" : [
                -4.422633647918701,
                -3.378889322280884,
                -1.028578519821167
            ],
            "type" : "VEC3"
        },
        {
            "bufferView" : 18,
            "componentType" : 5126,
            "count" : 792,
            "type" : "VEC3"
        },
        {
            "bufferView" : 19,
            "componentType" : 5126,
            "count" : 792,
            "type" : "VEC2"
        },
        {
            "bufferView" : 20,
            "componentType" : 5123,
            "count" : 1188,
            "type" : "SCALAR"
        },
        {
            "bufferView" : 21,
            "componentType" : 5126,
            "count" : 60,
            "max" : [
                1.842869520187378,
                1.1508712768554688,
                0.2679695785045624
            ],
            "min" : [
                1.330785870552063,
                0.6918966770172119,
                -0.19897596538066864
            ],
            "type" : "VEC3"
        },
        {
            "bufferView" : 22,
            "componentType" : 5126,
            "count" : 60,
            "type" : "VEC3"
        },
        {
            "bufferView" : 23,
            "componentType" : 5126,
            "count" : 60,
            "type" : "VEC2"
        },
        {
            "bufferView" : 24,
            "componentType" : 5123,
            "count" : 60,
            "type" : "SCALAR"
        },
        {
            "bufferView" : 25,
            "componentType" : 5126,
            "count" : 39,
            "max" : [
                2.5032358169555664,
                2.1564512252807617,
                0.8072708249092102
            ],
            "min" : [
                -4.398165225982666,
                -3.3544249534606934,
                -1.001746416091919
            ],
            "type" : "VEC3"
        },
        {
            "bufferView" : 26,
            "componentType" : 5126,
            "count" : 39,
            "type" : "VEC3"
        },
        {
            "bufferView" : 27,
            "componentType" : 5126,
            "count" : 39,
            "type" : "VEC2"
        },
        {
            "bufferView" : 28,
            "componentType" : 5126,
            "count" : 792,
            "max" : [
                2.528754234313965,
                2.1809213161468506,
                0.8289785385131836
            ],
            "min" : [
                -4.422633647918701,
                -3.378889322280884,
                -1.028578519821167
            ],
            "type" : "VEC3"
        },
        {
            "bufferView" : 29,
            "componentType" : 5126,
            "count" : 792,
            "type" : "VEC3"
        },
        {
            "bufferView" : 30,
            "componentType" : 5126,
            "count" : 792,
            "type" : "VEC2"
        },
        {
            "bufferView" : 31,
            "componentType" : 5126,
            "count" : 60,
            "max" : [
                1.842869520187378,
                1.1508712768554688,
                0.2679695785045624
            ],
            "min" : [
                1.330785870552063,
                0.6918966770172119,
                -0.19897596538066864
            ],
            "type" : "VEC3"
        },
        {
            "bufferView" : 32,
            "componentType" : 5126,
            "count" : 60,
            "type" : "VEC3"
        },
        {
            "bufferView" : 33,
            "componentType" : 5126,
            "count" : 60,
            "type" : "VEC2"
        },
        {
            "bufferView" : 34,
            "componentType" : 5126,
            "count" : 39,
            "max" : [
                2.5032358169555664,
                2.1564512252807617,
                0.8072708249092102
            ],
            "min" : [
                -4.398165225982666,
                -3.3544249534606934,
                -1.001746416091919
            ],
            "type" : "VEC3"
        },
        {
            "bufferView" : 35,
            "componentType" : 5126,
            "count" : 39,
            "type" : "VEC3"
        },
        {
            "bufferView" : 36,
            "componentType" : 5126,
            "count" : 39,
            "type" : "VEC2"
        },
        {
            "bufferView" : 37,
            "componentType" : 5126,
            "count" : 792,
            "max" : [
                2.528754234313965,
                2.1809213161468506,
                0.8289785385131836
            ],
            "min" : [
                -4.422633647918701,
                -3.378889322280884,
                -1.028578519821167
            ],
            "type" : "VEC3"
        },
        {
            "bufferView" : 38,
            "componentType" : 5126,
            "count" : 792,
            "type" : "VEC3"
        },
        {
            "bufferView" : 39,
            "componentType" : 5126,
            "count" : 792,
            "type" : "VEC2"
        },
        {
            "bufferView" : 40,
            "componentType" : 5126,
            "count" : 60,
            "max" : [
                1.842869520187378,
                1.1508712768554688,
                0.2679695785045624
            ],
            "min" : [
                1.330785870552063,
                0.6918966770172119,
                -0.19897596538066864
            ],
            "type" : "VEC3"
        },
        {
            "bufferView" : 41,
            "componentType" : 5126,
            "count" : 60,
            "type" : "VEC3"
        },
        {
            "bufferView" : 42,
            "componentType" : 5126,
            "count" : 60,
            "type" : "VEC2"
        }
    ],
    "bufferViews" : [
        {
            "buffer" : 0,
            "byteLength" : 432,
            "byteOffset" : 0
        },
        {
            "buffer" : 0,
            "byteLength" : 432,
            "byteOffset" : 432
        },
        {
            "buffer" : 0,
            "byteLength" : 288,
            "byteOffset" : 864
        },
        {
            "buffer" : 0,
            "byteLength" : 300,
            "byteOffset" : 1152
        },
        {
            "buffer" : 0,
            "byteLength" : 692678,
            "byteOffset" : 1452
        },
        {
            "buffer" : 0,
            "byteLength" : 1008,
            "byteOffset" : 694132
        },
        {
            "buffer" : 0,
            "byteLength" : 1008,
            "byteOffset" : 695140
        },
        {
            "buffer" : 0,
            "byteLength" : 672,
            "byteOffset" : 696148
        },
        {
            "buffer" : 0,
            "byteLength" : 540,
            "byteOffset" : 696820
        },
        {
            "buffer" : 0,
            "byteLength" : 27000,
            "byteOffset" : 697360
        },
        {
            "buffer" : 0,
            "byteLength" : 27000,
            "byteOffset" : 724360
        },
        {
            "buffer" : 0,
            "byteLength" : 18000,
            "byteOffset" : 751360
        },
        {
            "buffer" : 0,
            "byteLength" : 6780,
            "byteOffset" : 769360
        },
        {
            "buffer" : 0,
            "byteLength" : 468,
            "byteOffset" : 776140
        },
        {
            "buffer" : 0,
            "byteLength" : 468,
            "byteOffset" : 776608
        },
        {
            "buffer" : 0,
            "byteLength" : 312,
            "byteOffset" : 777076
        },
        {
            "buffer" : 0,
            "byteLength" : 102,
            "byteOffset" : 777388
        },
        {
            "buffer" : 0,
            "byteLength" : 9504,
            "byteOffset" : 777492
        },
        {
            "buffer" : 0,
            "byteLength" : 9504,
            "byteOffset" : 786996
        },
        {
            "buffer" : 0,
            "byteLength" : 6336,
            "byteOffset" : 796500
        },
        {
            "buffer" : 0,
            "byteLength" : 2376,
            "byteOffset" : 802836
        },
        {
            "buffer" : 0,
            "byteLength" : 720,
            "byteOffset" : 805212
        },
        {
            "buffer" : 0,
            "byteLength" : 720,
            "byteOffset" : 805932
        },
        {
            "buffer" : 0,
            "byteLength" : 480,
            "byteOffset" : 806652
        },
        {
            "buffer" : 0,
            "byteLength" : 120,
            "byteOffset" : 807132
        },
        {
            "buffer" : 0,
            "byteLength" : 468,
            "byteOffset" : 807252
        },
        {
            "buffer" : 0,
            "byteLength" : 468,
            "byteOffset" : 807720
        },
        {
            "buffer" : 0,
            "byteLength" : 312,
            "byteOffset" : 808188
        },
        {
            "buffer" : 0,
            "byteLength" : 9504,
            "byteOffset" : 808500
        },
        {
            "buffer" : 0,
            "byteLength" : 9504,
            "byteOffset" : 818004
        },
        {
            "buffer" : 0,
            "byteLength" : 6336,
            "byteOffset" : 827508
        },
        {
            "buffer" : 0,
            "byteLength" : 720,
            "byteOffset" : 833844
        },
        {
            "buffer" : 0,
            "byteLength" : 720,
            "byteOffset" : 834564
        },
        {
            "buffer" : 0,
            "byteLength" : 480,
            "byteOffset" : 835284
        },
        {
            "buffer" : 0,
            "byteLength" : 468,
            "byteOffset" : 835764
        },
        {
            "buffer" : 0,
            "byteLength" : 468,
            "byteOffset" : 836232
        },
        {
            "buffer" : 0,
            "byteLength" : 312,
            "byteOffset" : 836700
        },
        {
            "buffer" : 0,
            "byteLength" : 9504,
            "byteOffset" : 837012
        },
        {
            "buffer" : 0,
            "byteLength" : 9504,
            "byteOffset" : 846516
        },
        {
            "buffer" : 0,
            "byteLength" : 6336,
            "byteOffset" : 856020
        },
        {
            "buffer" : 0,
            "byteLength" : 720,
            "byteOffset" : 862356
        },
        {
            "buffer" : 0,
            "byteLength" : 720,
            "byteOffset" : 863076
        },
        {
            "buffer" : 0,
            "byteLength" : 480,
            "byteOffset" : 863796
        }
    ],
    "samplers" : [
        {
            "magFilter" : 9729,
            "minFilter" : 9987
        }
    ],
    "buffers" : [
        {
            "byteLength" : 864276,
            "uri" : "data:application/octet-stream;base64,"
        }
    ]
}
